<svg width="250" height="250" viewBox="0 0 250 250" fill="none" xmlns="http://www.w3.org/2000/svg">
<path d="M120 124.193C80.4706 124.193 48.3101 156.354 48.3101 195.883C48.3101 197.604 49.7066 199 51.4271 199C53.1477 199 54.5442 197.604 54.5442 195.883C54.5442 159.789 83.9058 130.427 120 130.427C156.094 130.427 185.456 159.789 185.456 195.883C185.456 197.604 186.852 199 188.573 199C190.294 199 191.69 197.604 191.69 195.883C191.69 156.348 159.529 124.193 120 124.193Z" fill="#374785"/>
<path d="M120 49C101.099 49 85.7135 64.3789 85.7135 83.2863C85.7135 102.194 101.099 117.573 120 117.573C138.901 117.573 154.286 102.194 154.286 83.2863C154.286 64.3789 138.901 49 120 49ZM120 111.339C104.533 111.339 91.9472 98.7526 91.9472 83.2863C91.9472 67.82 104.533 55.2338 120 55.2338C135.466 55.2338 148.052 67.82 148.052 83.2863C148.052 98.7526 135.466 111.339 120 111.339Z" fill="#374785"/>
</svg>
