<svg width="250" height="250" viewBox="0 0 250 250" fill="none" xmlns="http://www.w3.org/2000/svg">
<path d="M125 124.193C85.4706 124.193 53.3101 156.354 53.3101 195.883C53.3101 197.604 54.7066 199 56.4271 199C58.1477 199 59.5442 197.604 59.5442 195.883C59.5442 159.789 88.9058 130.427 125 130.427C161.094 130.427 190.456 159.789 190.456 195.883C190.456 197.604 191.852 199 193.573 199C195.294 199 196.69 197.604 196.69 195.883C196.69 156.348 164.529 124.193 125 124.193Z" fill="#374785"/>
<path d="M125 49C106.099 49 90.7135 64.3789 90.7135 83.2863C90.7135 102.194 106.099 117.573 125 117.573C143.901 117.573 159.286 102.194 159.286 83.2863C159.286 64.3789 143.901 49 125 49ZM125 111.339C109.533 111.339 96.9472 98.7526 96.9472 83.2863C96.9472 67.82 109.533 55.2338 125 55.2338C140.466 55.2338 153.052 67.82 153.052 83.2863C153.052 98.7526 140.466 111.339 125 111.339Z" fill="#374785"/>
</svg>
