<svg width="30" height="30" viewBox="0 0 30 30" fill="none" xmlns="http://www.w3.org/2000/svg">
<path d="M7.03125 15C7.03125 13.5137 7.44076 12.1213 8.15221 10.9291V5.872H3.0951C1.08797 8.47872 0 11.6556 0 15C0 18.3444 1.08797 21.5213 3.0951 24.1281H8.15221V19.0709C7.44076 17.8787 7.03125 16.4864 7.03125 15Z" fill="#FBBD00"/>
<path d="M15 22.9687L11.4844 26.4844L15 30C18.3445 30 21.5213 28.912 24.128 26.9049V21.8532H19.0763C17.8737 22.5672 16.4754 22.9687 15 22.9687Z" fill="#0F9D58"/>
<path d="M8.15184 19.0709L3.09473 24.128C3.49211 24.6441 3.92482 25.1384 4.39305 25.6066C7.22617 28.4397 10.993 30 14.9996 30V22.9687C12.092 22.9687 9.54355 21.4031 8.15184 19.0709Z" fill="#31AA52"/>
<path d="M30 15C30 14.0874 29.9174 13.1731 29.7544 12.2826L29.6225 11.562H15V18.5932H22.1163C21.4253 19.9679 20.3627 21.0894 19.0762 21.8533L24.128 26.905C24.6441 26.5076 25.1383 26.0749 25.6066 25.6067C28.4397 22.7735 30 19.0067 30 15Z" fill="#3C79E6"/>
<path d="M20.6348 9.36521L21.2562 9.98666L26.2281 5.01486L25.6066 4.39342C22.7735 1.56029 19.0067 0 15 0L11.4844 3.51562L15 7.03125C17.1285 7.03125 19.1296 7.86012 20.6348 9.36521Z" fill="#CF2D48"/>
<path d="M15.0002 7.03125V0C10.9935 0 7.22672 1.56029 4.39354 4.39336C3.92531 4.86158 3.4926 5.35582 3.09521 5.87197L8.15232 10.9291C9.5441 8.59687 12.0925 7.03125 15.0002 7.03125Z" fill="#EB4132"/>
</svg>
