<svg width="31" height="30" viewBox="0 0 31 30" fill="none" xmlns="http://www.w3.org/2000/svg">
<path d="M29.9531 8.82008C29.8828 7.22607 29.625 6.1302 29.2558 5.18061C28.8748 4.17264 28.2888 3.27022 27.521 2.52002C26.7708 1.75816 25.8624 1.16615 24.8661 0.79117C23.911 0.421912 22.8209 0.16414 21.2269 0.0938599C19.6209 0.0176273 19.1111 0 15.0381 0C10.965 0 10.4552 0.0176273 8.85523 0.0879078C7.26122 0.158188 6.16535 0.416188 5.21599 0.785218C4.2078 1.16615 3.30537 1.7522 2.55518 2.52002C1.79331 3.27022 1.20154 4.1786 0.826326 5.17488C0.457068 6.1302 0.199296 7.22011 0.129016 8.81413C0.0527836 10.42 0.0351562 10.9299 0.0351562 15.0029C0.0351562 19.076 0.0527836 19.5858 0.123064 21.1858C0.193344 22.7798 0.451344 23.8757 0.820602 24.8253C1.20154 25.8332 1.79331 26.7356 2.55518 27.4858C3.30537 28.2477 4.21375 28.8397 5.21004 29.2147C6.16535 29.584 7.25526 29.8417 8.84951 29.912C10.4492 29.9825 10.9593 29.9999 15.0323 29.9999C19.1054 29.9999 19.6152 29.9825 21.2152 29.912C22.8092 29.8417 23.9051 29.584 24.8544 29.2147C26.8706 28.4352 28.4646 26.8412 29.2441 24.8253C29.6131 23.8699 29.8711 22.7798 29.9414 21.1858C30.0117 19.5858 30.0293 19.076 30.0293 15.0029C30.0293 10.9299 30.0234 10.42 29.9531 8.82008ZM27.2515 21.0686C27.187 22.5337 26.9409 23.3249 26.7358 23.8523C26.2317 25.1593 25.1944 26.1965 23.8874 26.7006C23.36 26.9057 22.5631 27.1518 21.1037 27.2162C19.5214 27.2867 19.0468 27.3041 15.044 27.3041C11.0412 27.3041 10.5607 27.2867 8.98412 27.2162C7.51899 27.1518 6.72782 26.9057 6.20037 26.7006C5.54999 26.4602 4.95799 26.0793 4.47747 25.5812C3.97933 25.0947 3.59839 24.5086 3.35802 23.8583C3.1529 23.3308 2.90681 22.5337 2.84248 21.0745C2.77197 19.4922 2.75457 19.0174 2.75457 15.0146C2.75457 11.0118 2.77197 10.5313 2.84248 8.95492C2.90681 7.48979 3.1529 6.69862 3.35802 6.17117C3.59839 5.52056 3.97933 4.92879 4.48342 4.44804C4.96966 3.9499 5.55572 3.56896 6.20632 3.32882C6.73377 3.1237 7.53089 2.87761 8.99007 2.81305C10.5724 2.74277 11.0472 2.72514 15.0497 2.72514C19.0585 2.72514 19.533 2.74277 21.1097 2.81305C22.5748 2.87761 23.366 3.1237 23.8934 3.32882C24.5438 3.56896 25.1358 3.9499 25.6163 4.44804C26.1144 4.93451 26.4954 5.52056 26.7358 6.17117C26.9409 6.69862 27.187 7.49551 27.2515 8.95492C27.3218 10.5373 27.3394 11.0118 27.3394 15.0146C27.3394 19.0174 27.3218 19.4862 27.2515 21.0686Z" fill="#24315E"/>
<path d="M15.0381 7.29663C10.7835 7.29663 7.33154 10.7484 7.33154 15.0032C7.33154 19.258 10.7835 22.7098 15.0381 22.7098C19.293 22.7098 22.7447 19.258 22.7447 15.0032C22.7447 10.7484 19.293 7.29663 15.0381 7.29663ZM15.0381 20.0023C12.278 20.0023 10.0391 17.7636 10.0391 15.0032C10.0391 12.2428 12.278 10.0041 15.0381 10.0041C17.7985 10.0041 20.0372 12.2428 20.0372 15.0032C20.0372 17.7636 17.7985 20.0023 15.0381 20.0023Z" fill="#24315E"/>
<path d="M24.848 6.99152C24.848 7.98506 24.0424 8.79066 23.0487 8.79066C22.0551 8.79066 21.2495 7.98506 21.2495 6.99152C21.2495 5.99775 22.0551 5.19238 23.0487 5.19238C24.0424 5.19238 24.848 5.99775 24.848 6.99152Z" fill="#24315E"/>
</svg>
