<svg width="313" height="243" viewBox="0 0 313 243" fill="none" xmlns="http://www.w3.org/2000/svg">
<path d="M270.089 77.8613C267.867 77.8613 265.646 78.0131 263.475 78.3675C262.466 78.5194 261.506 78.7219 260.497 78.9244C259.588 79.1269 258.73 79.38 257.821 79.6331C257.67 79.6331 257.518 79.6331 257.367 79.6331C249.441 79.6331 242.928 73.5075 242.272 65.7113V15.1875C242.272 6.78375 235.507 0 227.127 0H15.1452C6.76484 0 0 6.78375 0 15.1875V64.6988C0 68.85 3.33194 72.2419 7.47161 72.2925H7.5221H7.57258H7.62306C8.58226 72.2419 9.49097 72.09 10.3492 71.685C10.4502 71.685 10.5511 71.6344 10.6521 71.6344C13.5297 71.1281 16.5082 70.875 19.5373 70.875C47.4044 70.875 70.0211 93.555 70.0211 121.5C70.0211 149.445 47.4044 172.125 19.5373 172.125C16.3063 172.125 13.1258 171.821 10.0968 171.214C9.49097 171.011 8.88516 170.859 8.22887 170.809C8.02693 170.809 7.825 170.809 7.62306 170.809C3.98823 170.809 0.959194 173.391 0.252419 176.783C0.151452 177.289 0.0504839 177.846 0.0504839 178.403V227.813C0.0504839 236.216 6.81532 243 15.1956 243H66.1339H176.189H227.177C235.558 243 242.323 236.216 242.323 227.813V177.289C242.323 168.885 249.087 162.101 257.468 162.101C257.569 162.101 257.72 162.101 257.821 162.101C261.708 163.266 265.848 163.873 270.089 163.873C293.766 163.873 313 144.636 313 120.842C313 97.0988 293.766 77.8613 270.089 77.8613ZM9.84435 57.4594C10.8035 57.7631 11.6618 58.2188 12.419 58.8769C11.6618 58.2188 10.7531 57.7631 9.84435 57.4594Z" fill="#DAE8F0"/>
</svg>
