<svg width="243" height="243" viewBox="0 0 243 243" fill="none" xmlns="http://www.w3.org/2000/svg">
<path fill-rule="evenodd" clip-rule="evenodd" d="M30 0C13.4315 0 0 13.4315 0 30V64.9029C0 69.1016 3.38932 72.491 7.58803 72.491H7.94214C8.80211 72.4404 9.66209 72.238 10.4209 71.9345C13.5573 71.3275 16.7948 71.0239 20.1336 71.0239C48.0575 71.0239 70.7204 93.6868 70.7204 121.611V122.117C70.4675 149.838 47.9057 172.198 20.1336 172.198C16.7442 172.198 13.5067 171.844 10.3197 171.236C9.6115 170.984 8.90329 170.781 8.0939 170.731H7.58803C3.38932 170.731 0 174.12 0 178.319V212.817C0 229.385 13.4315 242.817 30 242.817H212.817C229.385 242.817 242.817 229.385 242.817 212.817V30C242.817 13.4315 229.385 0 212.817 0H30Z" fill="#DAE8F0"/>
</svg>
