<svg width="315" height="243" viewBox="0 0 315 243" fill="none" xmlns="http://www.w3.org/2000/svg">
<path d="M184.804 243H228.592C237.025 243 243.832 236.216 243.832 227.812V178.251C243.832 173.745 245.813 169.695 248.962 166.911C249.775 166.202 250.639 165.544 251.604 165.037C253.839 163.772 256.379 163.063 259.071 163.063C259.579 163.063 260.138 163.114 260.646 163.164C261.763 163.468 262.881 163.721 264.049 163.924C266.589 164.379 269.18 164.632 271.821 164.632C295.646 164.632 315 145.344 315 121.601C315 97.8075 295.646 78.57 271.821 78.57C268.926 78.57 266.081 78.8737 263.338 79.38H263.287C262.627 79.5825 262.017 79.7343 261.306 79.8356L263.186 79.4306C262.525 79.5318 261.916 79.6837 261.306 79.8356H261.255C260.493 79.9368 259.732 79.9875 258.97 79.9875C256.277 79.9875 253.737 79.2787 251.553 78.0637C250.689 77.5575 249.826 77.0006 249.064 76.3425C246.168 73.8618 244.187 70.3687 243.781 66.3694C243.73 65.8631 243.679 65.3062 243.679 64.8C243.679 64.2937 243.73 63.7368 243.781 63.2306V15.1875C243.781 6.78372 236.974 -3.05176e-05 228.541 -3.05176e-05H15.2395C6.80697 -3.05176e-05 0 6.78372 0 15.1875V227.812C0 236.216 6.80697 243 15.2395 243H71.016H184.804Z" fill="#DAE8F0"/>
</svg>
