<svg width="36" height="30" viewBox="0 0 36 30" fill="none" xmlns="http://www.w3.org/2000/svg">
<path d="M1.13984 14.5676L9.57677 18.7456C9.90309 18.9056 10.2883 18.8942 10.6003 18.7128L18.11 14.3748L13.5645 18.3771C13.3331 18.5814 13.2008 18.8728 13.2008 19.1799V28.9285C13.2008 29.957 14.5219 30.3898 15.1415 29.5727L18.7885 24.7548L27.8077 29.8584C28.4402 30.2198 29.251 29.857 29.3976 29.1385L35.0227 1.28515C35.1909 0.448123 34.3528 -0.234641 33.5736 0.0767453L1.22896 12.6108C0.360689 12.9478 0.304625 14.1548 1.13984 14.5676ZM32.5214 2.78495L27.5777 27.263L19.0315 22.4266C18.5657 22.1623 17.9663 22.2794 17.6356 22.7137L15.3571 25.7232V19.6612L27.6495 8.83984C28.6227 7.98424 27.5043 6.46302 26.3931 7.1115L10.0195 16.5702L4.28086 13.7292L32.5214 2.78495Z" fill="#24315E"/>
</svg>
