<svg width="28" height="30" viewBox="0 0 28 30" fill="none" xmlns="http://www.w3.org/2000/svg">
<path d="M10.4676 30C7.81558 30 5.31919 28.9865 3.43941 27.1529C0.715531 24.4874 -0.230344 20.5448 1.1765 16.7077C1.2184 16.5905 1.26629 16.4792 1.32017 16.362C3.20594 12.4546 7.04332 10.2929 11.1621 10.5682C11.4374 10.5858 11.6649 10.826 11.6649 11.0955V16.1804C11.6649 16.8307 11.1202 17.3521 10.4616 17.3521C8.80336 17.3521 7.45639 18.6585 7.45639 20.2636C7.45639 21.8688 8.80336 23.1752 10.4616 23.1752C10.7849 23.1752 11.1022 23.1224 11.4075 23.0287C12.6348 22.6362 13.4609 21.529 13.4669 20.2753V1.17165C13.4669 0.521383 14.0057 0 14.6762 0H19.208C19.8725 0 20.4053 0.521383 20.4053 1.17165C20.4113 4.35852 23.0633 6.94786 26.326 6.94786C26.9905 6.94786 27.5293 7.46924 27.5293 8.11951V12.5776C27.5293 13.2279 26.9905 13.7493 26.326 13.7493C24.5899 13.7493 22.9017 13.4153 21.3093 12.7592C21.004 12.6303 20.6986 12.4956 20.4053 12.3433V20.3046C20.3933 22.894 19.3577 25.3193 17.4958 27.147C15.9812 28.6292 14.0655 29.5782 11.9583 29.8887C11.4674 29.959 10.9645 30 10.4676 30ZM9.27031 12.9818C7.61802 13.2396 6.09744 14.0305 4.93006 15.2607C3.6669 16.5964 2.94851 18.3538 2.92457 20.1757C2.90062 22.1851 3.68486 24.0715 5.13361 25.4892C6.55841 26.8834 8.45016 27.6509 10.4676 27.6509C10.8508 27.6509 11.2279 27.6216 11.6051 27.5688C13.1975 27.3345 14.6522 26.6139 15.8016 25.4892C17.2205 24.1066 18.0047 22.2613 18.0107 20.2988V10.2168C18.0107 9.66608 18.3998 9.17985 18.9865 9.06854C19.3277 9.0041 19.6809 9.09197 19.9563 9.30287C20.6567 9.83011 21.429 10.2695 22.2492 10.6034C23.1771 10.9842 24.1409 11.2361 25.1347 11.3415V9.20328C21.5068 8.68776 18.6273 5.88166 18.1005 2.33743H15.8555V20.2753C15.8495 22.5425 14.3649 24.5401 12.1678 25.249C11.623 25.4247 11.0483 25.5185 10.4736 25.5185C7.50428 25.5185 5.0917 23.1634 5.0917 20.2636C5.0917 17.768 6.88168 15.6708 9.2763 15.1377V12.9818H9.27031Z" fill="#24315E"/>
</svg>
