<svg width="30" height="17" viewBox="0 0 30 17" fill="none" xmlns="http://www.w3.org/2000/svg">
<path d="M25.8193 10.795C26.8144 11.7666 27.8647 12.6806 28.7573 13.7502C29.1516 14.2255 29.5248 14.7159 29.8104 15.2676C30.215 16.0517 29.8485 16.9145 29.1455 16.9613L24.775 16.9593C23.6477 17.0528 22.7485 16.5991 21.9924 15.8284C21.3873 15.212 20.8269 14.556 20.2451 13.9189C20.0065 13.6585 19.7569 13.4135 19.4586 13.2198C18.862 12.8325 18.3441 12.951 18.0032 13.5733C17.6559 14.2062 17.5771 14.907 17.543 15.6124C17.4962 16.6415 17.1851 16.9121 16.1514 16.9592C13.9421 17.0634 11.8454 16.7292 9.89753 15.6147C8.18026 14.6322 6.84866 13.2451 5.68956 11.6748C3.43294 8.61722 1.70472 5.25733 0.151512 1.80334C-0.198116 1.02516 0.0575866 0.607442 0.916219 0.592618C2.34198 0.564903 3.76757 0.566895 5.19503 0.590626C5.77452 0.599122 6.15813 0.931466 6.3819 1.47891C7.15329 3.37565 8.09718 5.18022 9.28194 6.8529C9.59747 7.29821 9.91921 7.74358 10.3773 8.057C10.8841 8.40405 11.27 8.28903 11.5084 7.72442C11.6597 7.36641 11.726 6.98081 11.7601 6.59743C11.8731 5.27831 11.888 3.96141 11.6899 2.64692C11.5682 1.82654 11.1061 1.29545 10.2875 1.14024C9.86981 1.06108 9.93198 0.905626 10.1342 0.667208C10.4855 0.255996 10.8159 0 11.4746 0H16.4139C17.1915 0.153457 17.3642 0.502794 17.4707 1.2852L17.4749 6.77174C17.4664 7.07462 17.6262 7.9735 18.1717 8.17395C18.6084 8.31669 18.8962 7.96735 19.1582 7.6905C20.3408 6.43536 21.1849 4.952 21.9389 3.41602C22.2735 2.74061 22.5613 2.03924 22.8401 1.3384C23.0467 0.818379 23.3709 0.5625 23.9567 0.573809L28.7105 0.578028C28.8515 0.578028 28.9941 0.580079 29.1306 0.603458C29.9317 0.739981 30.1512 1.08457 29.9038 1.8668C29.514 3.09405 28.7555 4.1168 28.0138 5.14424C27.2211 6.24118 26.3732 7.30061 25.587 8.40405C24.8647 9.41186 24.922 9.91975 25.8193 10.795Z" fill="#436EAB"/>
</svg>
