<svg width="17" height="20" viewBox="0 0 17 20" fill="none" xmlns="http://www.w3.org/2000/svg">
<path d="M8.37169 9.63402C9.72014 9.63402 10.8878 9.15932 11.8418 8.22275C12.7959 7.28632 13.2795 6.14055 13.2795 4.81686C13.2795 3.49363 12.7959 2.3477 11.8417 1.41097C10.8875 0.474697 9.71998 0 8.37169 0C7.02309 0 5.85575 0.474697 4.9017 1.41112C3.94765 2.34755 3.46387 3.49347 3.46387 4.81686C3.46387 6.14055 3.94765 7.28647 4.90186 8.2229C5.85606 9.15917 7.02355 9.63402 8.37169 9.63402Z" fill="#ECCD60"/>
<path d="M16.9588 15.3789C16.9313 14.9892 16.8756 14.5641 16.7937 14.1152C16.711 13.6629 16.6045 13.2354 16.477 12.8446C16.3454 12.4407 16.1663 12.0418 15.9449 11.6596C15.7151 11.2629 15.4453 10.9174 15.1424 10.6332C14.8258 10.3358 14.438 10.0967 13.9897 9.92226C13.5429 9.74877 13.0478 9.66088 12.5181 9.66088C12.3101 9.66088 12.109 9.74465 11.7205 9.99291C11.4814 10.146 11.2017 10.323 10.8896 10.5187C10.6226 10.6857 10.261 10.8421 9.8144 10.9837C9.37865 11.1221 8.93622 11.1922 8.49953 11.1922C8.06285 11.1922 7.62057 11.1221 7.18436 10.9837C6.73819 10.8422 6.37659 10.6858 6.10998 10.5189C5.80078 10.3249 5.52095 10.1479 5.27828 9.99276C4.89026 9.7445 4.68894 9.66073 4.48093 9.66073C3.95113 9.66073 3.45615 9.74877 3.00952 9.92241C2.56149 10.0965 2.17362 10.3356 1.85664 10.6333C1.55396 10.9177 1.28393 11.263 1.05447 11.6596C0.833257 12.0418 0.654169 12.4406 0.52234 12.8448C0.39502 13.2355 0.288531 13.6629 0.205827 14.1152C0.1239 14.5635 0.0682463 14.9888 0.0407301 15.3794C0.0136803 15.7621 0 16.1592 0 16.5604C0 17.6044 0.338122 18.4496 1.00488 19.0729C1.66341 19.688 2.53475 20 3.59435 20H13.4056C14.4653 20 15.3363 19.6881 15.995 19.0729C16.6619 18.45 17 17.6047 17 16.5602C16.9998 16.1573 16.986 15.7598 16.9588 15.3789Z" fill="#ECCD60"/>
</svg>
