<svg width="49" height="30" viewBox="0 0 49 30" fill="none" xmlns="http://www.w3.org/2000/svg">
<path d="M24.3193 30C31.2633 30 28.7873 25.604 29.3233 24.34C29.3153 23.396 29.3073 22.488 29.3393 21.936C29.7793 22.06 30.8173 22.586 32.9613 24.67C36.2713 28.01 37.1173 30 39.7913 30H44.7133C46.2733 30 47.0853 29.354 47.4913 28.812C47.8833 28.288 48.2673 27.368 47.8473 25.936C46.7493 22.488 40.3453 16.534 39.9473 15.906C40.0073 15.79 40.1033 15.636 40.1533 15.556H40.1493C41.4133 13.886 46.2373 6.658 46.9473 3.766C46.9493 3.762 46.9513 3.756 46.9513 3.75C47.3353 2.43 46.9833 1.574 46.6193 1.09C46.0713 0.366 45.1993 0 44.0213 0H39.0993C37.4513 0 36.2013 0.83 35.5693 2.344C34.5113 5.034 31.5393 10.566 29.3113 12.524C29.2433 9.75 29.2893 7.632 29.3253 6.058C29.3973 2.988 29.6293 0 26.4433 0H18.7073C16.7113 0 14.8013 2.18 16.8693 4.768C18.6773 7.036 17.5193 8.3 17.9093 14.592C16.3893 12.962 13.6853 8.56 11.7733 2.934C11.2373 1.412 10.4253 0.00199986 8.1393 0.00199986H3.2173C1.2213 0.00199986 0.0292969 1.09 0.0292969 2.912C0.0292969 7.004 9.0873 30 24.3193 30ZM8.1393 3.002C8.5733 3.002 8.6173 3.002 8.9393 3.916C10.8973 9.682 15.2893 18.214 18.4973 18.214C20.9073 18.214 20.9073 15.744 20.9073 14.814L20.9053 7.41C20.7733 4.96 19.8813 3.74 19.2953 3L26.3113 3.008C26.3153 3.042 26.2713 11.198 26.3313 13.174C26.3313 15.98 28.5593 17.588 32.0373 14.068C35.7073 9.926 38.2453 3.734 38.3473 3.482C38.4973 3.122 38.6273 3 39.0993 3H44.0213H44.0413C44.0393 3.006 44.0393 3.012 44.0373 3.018C43.5873 5.118 39.1453 11.81 37.6593 13.888C37.6353 13.92 37.6133 13.954 37.5913 13.988C36.9373 15.056 36.4053 16.236 37.6813 17.896H37.6833C37.7993 18.036 38.1013 18.364 38.5413 18.82C39.9093 20.232 44.6013 25.06 45.0173 26.98C44.7413 27.024 44.4413 26.992 39.7913 27.002C38.8013 27.002 38.0273 25.522 35.0733 22.542C32.4173 19.958 30.6933 18.902 29.1233 18.902C26.0753 18.902 26.2973 21.376 26.3253 24.368C26.3353 27.612 26.3153 26.586 26.3373 26.79C26.1593 26.86 25.6493 27 24.3193 27C11.6293 27 3.3653 6.858 3.0473 3.008C3.1573 2.998 4.6713 3.004 8.1393 3.002Z" fill="#24315E"/>
</svg>
