<svg width="43" height="30" viewBox="0 0 43 30" fill="none" xmlns="http://www.w3.org/2000/svg">
<path d="M21.2855 30C21.282 30 21.2782 30 21.2744 30C20.0217 29.9914 8.94759 29.8904 5.81006 29.0419C3.61734 28.4525 1.88642 26.7234 1.2954 24.5304C0.474436 21.4483 0.526697 15.5144 0.532398 15.0405C0.527014 14.5689 0.47412 8.58591 1.29287 5.47847C1.29382 5.47562 1.29445 5.47246 1.2954 5.4696C1.87977 3.30159 3.64965 1.51904 5.80468 0.928018C5.81006 0.926434 5.81577 0.925167 5.82115 0.923584C8.9232 0.108322 20.0192 0.00855172 21.2744 0H21.2969C22.5527 0.00855172 33.6563 0.109589 36.765 0.959374C38.952 1.54722 40.6817 3.27403 41.2743 5.46422C42.126 8.57387 42.0471 14.5699 42.0385 15.076C42.0446 15.5745 42.0943 21.4553 41.2781 24.5529C41.2774 24.5561 41.2765 24.5589 41.2759 24.5618C40.6845 26.7548 38.9539 28.4838 36.7587 29.0739C36.7558 29.0748 36.7526 29.0755 36.7498 29.0764C33.6481 29.8914 22.5518 29.9911 21.2969 30C21.2931 30 21.2893 30 21.2855 30ZM4.42786 6.3102C3.70698 9.05308 3.77508 14.9598 3.77571 15.0193V15.0621C3.75417 16.7002 3.82987 21.4442 4.42817 23.6911C4.7183 24.767 5.57188 25.6193 6.65447 25.9104C8.96944 26.5366 17.989 26.7336 21.2855 26.7567C24.5905 26.7336 33.6234 26.5419 35.9212 25.9408C37.0003 25.6488 37.8511 24.7993 38.1431 23.7221C38.742 21.4423 38.8171 16.7214 38.7952 15.0938C38.7952 15.0766 38.7952 15.0595 38.7956 15.0424C38.8253 13.3847 38.7667 8.58527 38.1459 6.32034C38.1453 6.31812 38.1447 6.31591 38.1444 6.31369C37.853 5.23301 36.9991 4.38069 35.9165 4.08961C33.624 3.46281 24.5899 3.26643 21.2855 3.24331C17.9826 3.26643 8.95867 3.45774 6.65383 4.05826C5.59184 4.35282 4.71893 5.23554 4.42786 6.3102ZM17.1518 21.5674V8.43229L28.5034 15L17.1518 21.5674Z" fill="#24315E"/>
<path d="M17.144 21.5697V8.40857L28.5178 14.9891L17.144 21.5697Z" fill="#24315E"/>
</svg>
