<svg width="30" height="36" viewBox="0 0 30 36" fill="none" xmlns="http://www.w3.org/2000/svg">
<path d="M14.7789 17.3414C17.1595 17.3414 19.2205 16.4869 20.9051 14.8011C22.5891 13.1155 23.4431 11.0531 23.4431 8.67041C23.4431 6.28857 22.5893 4.22589 20.9048 2.53976C19.2203 0.854462 17.1592 0 14.7789 0C12.3981 0 10.3373 0.854462 8.65308 2.54004C6.96882 4.22562 6.11475 6.2883 6.11475 8.67041C6.11475 11.0531 6.96882 13.1158 8.65308 14.8013C10.3379 16.4866 12.399 17.3414 14.7789 17.3414ZM10.1439 4.03171C11.4362 2.73834 12.9522 2.10965 14.7789 2.10965C16.6054 2.10965 18.1217 2.73834 19.4143 4.03171C20.7066 5.32535 21.3351 6.84283 21.3351 8.67041C21.3351 10.4985 20.7066 12.0157 19.4143 13.3094C18.1217 14.603 16.6054 15.2317 14.7789 15.2317C12.9528 15.2317 11.4368 14.6028 10.1439 13.3094C8.85123 12.016 8.22275 10.4985 8.22275 8.67041C8.22275 6.84283 8.85123 5.32535 10.1439 4.03171Z" fill="#24315E"/>
<path d="M14.8 15.8C16.7233 15.8 18.3885 15.1102 19.7495 13.7491C21.11 12.3883 21.8 10.7233 21.8 8.79977C21.8 6.87687 21.1102 5.21163 19.7493 3.85039C18.3883 2.48981 16.7231 1.79999 14.8 1.79999C12.8765 1.79999 11.2116 2.48981 9.85082 3.85061C8.49007 5.2114 7.80005 6.87665 7.80005 8.79977C7.80005 10.7233 8.49007 12.3886 9.85082 13.7494C11.212 15.1099 12.8772 15.8 14.8 15.8ZM11.0553 5.05486C12.0994 4.0107 13.3242 3.50315 14.8 3.50315C16.2757 3.50315 17.5007 4.0107 18.5451 5.05486C19.5892 6.09924 20.0969 7.32433 20.0969 8.79977C20.0969 10.2756 19.5892 11.5005 18.5451 12.5449C17.5007 13.5893 16.2757 14.0968 14.8 14.0968C13.3247 14.0968 12.0998 13.5891 11.0553 12.5449C10.0109 11.5007 9.50315 10.2756 9.50315 8.79977C9.50315 7.32433 10.0109 6.09924 11.0553 5.05486Z" fill="white"/>
<path d="M29.9273 27.5082C29.8787 26.792 29.7805 26.0108 29.636 25.1859C29.49 24.3548 29.3021 23.5691 29.0771 22.8509C28.8445 22.1087 28.5287 21.3757 28.1378 20.6733C27.7326 19.9443 27.2563 19.3094 26.7219 18.787C26.1631 18.2405 25.4789 17.8011 24.6877 17.4806C23.8993 17.1618 23.0255 17.0003 22.0908 17.0003C21.7238 17.0003 21.3688 17.1542 20.6832 17.6104C20.2613 17.8917 19.7677 18.217 19.2169 18.5767C18.7458 18.8835 18.1077 19.1709 17.3195 19.4311C16.5506 19.6854 15.7698 19.8144 14.9989 19.8144C14.2286 19.8144 13.4478 19.6854 12.6783 19.4311C11.8909 19.1712 11.2525 18.8838 10.7823 18.577C10.2367 18.2206 9.74285 17.8953 9.31461 17.6102C8.62959 17.1539 8.27459 17 7.90753 17C6.97258 17 6.09909 17.1618 5.31092 17.4809C4.52027 17.8008 3.8358 18.2402 3.27642 18.7873C2.74201 19.31 2.26576 19.9445 1.86084 20.6733C1.47045 21.3757 1.15442 22.1084 0.921777 22.8512C0.697094 23.5693 0.509172 24.3548 0.363224 25.1859C0.218373 26.0097 0.120435 26.7912 0.0718767 27.509C0.0241418 28.2109 0 28.9414 0 29.6794C0 31.5979 0.596686 33.1511 1.77332 34.2965C2.93542 35.4269 4.47281 36 6.34298 36H23.657C25.5266 36 27.064 35.4269 28.2264 34.2965C29.4033 33.1519 30 31.5982 30 29.6791C29.9997 28.9385 29.9753 28.2081 29.9273 27.5082ZM26.7735 32.7361C26.0056 33.4831 24.9862 33.8462 23.6567 33.8462H6.34298C5.01326 33.8462 3.99382 33.4831 3.22622 32.7364C2.47316 32.0037 2.10719 31.0035 2.10719 29.6794C2.10719 28.9907 2.12941 28.3107 2.17386 27.6579C2.2172 27.0175 2.30581 26.314 2.43722 25.5664C2.56698 24.8281 2.73214 24.1352 2.92856 23.5079C3.11703 22.9065 3.37409 22.3109 3.69287 21.7372C3.99711 21.1904 4.34717 20.7213 4.73343 20.3433C5.09474 19.9897 5.55014 19.7003 6.08675 19.4833C6.58302 19.2825 7.14075 19.1726 7.74622 19.156C7.82002 19.1961 7.95142 19.2727 8.16431 19.4146C8.59749 19.7031 9.09679 20.0323 9.64876 20.3926C10.271 20.7981 11.0726 21.1643 12.0303 21.4803C13.0094 21.8039 14.008 21.9682 14.9992 21.9682C15.9904 21.9682 16.9892 21.8039 17.9678 21.4806C18.9263 21.164 19.7277 20.7981 20.3507 20.3921C20.9156 20.0231 21.4009 19.7034 21.834 19.4146C22.0469 19.273 22.1783 19.1961 22.2521 19.156C22.8579 19.1726 23.4156 19.2825 23.9122 19.4833C24.4485 19.7003 24.9039 19.99 25.2652 20.3433C25.6515 20.721 26.0015 21.1901 26.3058 21.7375C26.6248 22.3109 26.8821 22.9067 27.0703 23.5077C27.267 24.1358 27.4325 24.8284 27.562 25.5661C27.6931 26.3151 27.782 27.0189 27.8253 27.6582V27.6588C27.87 28.309 27.8925 28.9887 27.8928 29.6794C27.8925 31.0037 27.5266 32.0037 26.7735 32.7361Z" fill="#24315E"/>
<path d="M28.4346 27.349C28.3909 26.7459 28.3025 26.0881 28.1724 25.3934C28.041 24.6935 27.8719 24.0318 27.6694 23.4271C27.46 22.8021 27.1759 22.1848 26.824 21.5933C26.4593 20.9794 26.0307 20.4448 25.5497 20.0049C25.0468 19.5446 24.431 19.1746 23.7189 18.9047C23.0093 18.6362 22.5912 18.5 21.75 18.5C21.4196 18.5 20.7939 19.1177 20.1768 19.5019C19.7971 19.7387 19.3529 20.0127 18.8571 20.3156C18.4332 20.5739 17.8589 20.816 17.1496 21.0351C16.4575 21.2493 15.6931 21.3154 14.9993 21.3154C14.306 21.3154 13.665 21.2493 12.9724 21.0351C12.2638 20.8162 11.6893 20.5742 11.2661 20.3158C10.775 20.0157 10.3305 19.7418 9.94512 19.5017C9.3286 19.1175 8.58036 18.5 8.25 18.5C7.40855 18.5 6.98918 18.6362 6.27983 18.905C5.56825 19.1744 4.95222 19.5444 4.44878 20.0051C3.96781 20.4452 3.53918 20.9796 3.17475 21.5933C2.82341 22.1848 2.53897 22.8018 2.3296 23.4273C2.12738 24.0321 1.95825 24.6935 1.8269 25.3934C1.69654 26.0871 1.60839 26.7452 1.56469 27.3497C1.52173 27.9408 1.5 28.5559 1.5 29.1774C1.5 30.793 2.03702 32.1009 3.09599 33.0655C4.14188 34.0173 5.52553 34.5 7.20868 34.5H22.7913C24.474 34.5 25.8576 34.0173 26.9038 33.0655C27.963 32.1016 28.5 30.7932 28.5 29.1771C28.4998 28.5535 28.4778 27.9384 28.4346 27.349ZM25.5962 31.7514C24.9051 32.3805 23.9876 32.6863 22.7911 32.6863H7.20868C6.01193 32.6863 5.09444 32.3805 4.4036 31.7517C3.72584 31.1347 3.39647 30.2924 3.39647 29.1774C3.39647 28.5974 3.41647 28.0248 3.45647 27.4751C3.49548 26.9358 3.57523 26.3433 3.6935 25.7138C3.81029 25.0921 3.95892 24.5086 4.13571 23.9804C4.30533 23.4739 4.53668 22.9723 4.82358 22.4892C5.0974 22.0287 5.41245 21.6337 5.76009 21.3154C6.08526 21.0176 6.49513 20.7739 6.97807 20.5912C7.42472 20.4221 7.92668 20.3295 8.4716 20.3156C8.53801 20.3494 8.65628 20.4138 8.84788 20.5333C9.23774 20.7763 9.68711 21.0535 10.1839 21.3569C10.7439 21.6984 11.4653 22.0068 12.3273 22.2729C13.2085 22.5454 14.1072 22.6838 14.9993 22.6838C15.8913 22.6838 16.7903 22.5454 17.671 22.2731C18.5337 22.0065 19.2549 21.6984 19.8156 21.3565C20.324 21.0457 20.7608 20.7765 21.1506 20.5333C21.3422 20.4141 21.4605 20.3494 21.5269 20.3156C22.0721 20.3295 22.574 20.4221 23.0209 20.5912C23.5036 20.7739 23.9135 21.0179 24.2387 21.3154C24.5863 21.6335 24.9014 22.0285 25.1752 22.4894C25.4623 22.9723 25.6939 23.4741 25.8633 23.9801C26.0403 24.5091 26.1892 25.0923 26.3058 25.7136C26.4238 26.3443 26.5038 26.937 26.5428 27.4753C26.583 28.0229 26.6033 28.5958 26.6035 29.1774C26.6033 30.2926 26.2739 31.1347 25.5962 31.7514Z" fill="white"/>
</svg>
