<svg width="1297" height="2934" fill="none" xmlns="http://www.w3.org/2000/svg">
    <g filter="url(#prefix__a)" opacity="0.4">
        <path fill-rule="evenodd" clip-rule="evenodd" d="m144.814 804.908-2.402 1.082-30 13.528-3.158 1.424 2.812 2.023 26.716 19.217 2.812 2.023.346-3.447 3.284-32.745.263-2.621 2.402-1.083 30-13.527 3.158-1.424-2.813-2.023-26.715-19.217-2.812-2.023-.346 3.447-3.285 32.745-.262 2.621zm30.263-16.149-26.843 12.104 2.939-29.298 23.904 17.194zm-59.853 32.782 26.842-12.104-2.939 29.298-23.903-17.194z" fill="#B08DDE"/>
        <path fill-rule="evenodd" clip-rule="evenodd" d="m145.393 804.813-1.083-2.401-13.528-30-1.424-3.158-2.023 2.812-19.217 26.715-2.022 2.812 3.446.346 32.745 3.285 2.621.263 1.083 2.401 13.527 30 1.424 3.158 2.023-2.812 19.217-26.715 2.023-2.813-3.447-.345-32.744-3.285-2.621-.263zm16.148 30.263-12.103-26.842 29.297 2.939-17.194 23.903zm-32.782-59.852 12.104 26.842-29.298-2.939 17.194-23.903zM1195.81 2853.91l-2.4 1.08-30 13.53-3.16 1.42 2.81 2.02 26.72 19.22 2.81 2.02.35-3.44 3.28-32.75.27-2.62 2.4-1.08 30-13.53 3.15-1.42-2.81-2.02-26.71-19.22-2.81-2.02-.35 3.44-3.29 32.75-.26 2.62zm30.26-16.15-26.84 12.1 2.94-29.3 23.9 17.2zm-59.85 32.78 26.84-12.1-2.93 29.3-23.91-17.2z" fill="#B08DDE"/>
        <path fill-rule="evenodd" clip-rule="evenodd" d="m1196.39 2853.81-1.08-2.4-13.53-30-1.42-3.16-2.03 2.82-19.21 26.71-2.03 2.81 3.45.35 32.75 3.28 2.62.27 1.08 2.4 13.53 30 1.42 3.16 2.02-2.82 19.22-26.71 2.02-2.81-3.44-.35-32.75-3.28-2.62-.27zm16.15 30.27-12.1-26.85 29.29 2.94-17.19 23.91zm-32.78-59.86 12.1 26.85-29.3-2.94 17.2-23.91z" fill="#B08DDE"/>
        <ellipse cx="88.582" cy="1548.65" rx="6.815" ry="6.737" transform="rotate(29.64 88.582 1548.65)" fill="#374785"/>
        <ellipse cx="122.64" cy="1599.03" rx="6.815" ry="6.737" transform="rotate(29.64 122.64 1599.03)" fill="#374785"/>
        <ellipse cx="98.948" cy="1585.55" rx="6.815" ry="6.737" transform="rotate(29.64 98.948 1585.55)" fill="#374785"/>
        <ellipse cx="75.255" cy="1572.07" rx="6.815" ry="6.737" transform="rotate(29.64 75.255 1572.07)" fill="#374785"/>
        <ellipse cx="149.295" cy="1552.19" rx="6.815" ry="6.737" transform="rotate(29.64 149.295 1552.19)" fill="#374785"/>
        <ellipse cx="125.603" cy="1538.71" rx="6.815" ry="6.737" transform="rotate(29.64 125.603 1538.71)" fill="#374785"/>
        <ellipse cx="101.911" cy="1525.23" rx="6.815" ry="6.737" transform="rotate(29.64 101.911 1525.23)" fill="#374785"/>
        <ellipse cx="135.967" cy="1575.61" rx="6.815" ry="6.737" transform="rotate(29.64 135.967 1575.61)" fill="#374785"/>
        <ellipse cx="112.275" cy="1562.13" rx="6.815" ry="6.737" transform="rotate(29.64 112.275 1562.13)" fill="#374785"/>
        <ellipse cx="261.582" cy="2311.65" rx="6.815" ry="6.737" transform="rotate(29.64 261.582 2311.65)" fill="#44AE65"/>
        <ellipse cx="295.64" cy="2362.03" rx="6.815" ry="6.737" transform="rotate(29.64 295.64 2362.03)" fill="#44AE65"/>
        <ellipse cx="271.948" cy="2348.55" rx="6.815" ry="6.737" transform="rotate(29.64 271.948 2348.55)" fill="#44AE65"/>
        <ellipse cx="248.255" cy="2335.07" rx="6.815" ry="6.737" transform="rotate(29.64 248.255 2335.07)" fill="#44AE65"/>
        <ellipse cx="322.295" cy="2315.19" rx="6.815" ry="6.737" transform="rotate(29.64 322.295 2315.19)" fill="#44AE65"/>
        <ellipse cx="298.603" cy="2301.71" rx="6.815" ry="6.737" transform="rotate(29.64 298.603 2301.71)" fill="#44AE65"/>
        <ellipse cx="274.911" cy="2288.23" rx="6.815" ry="6.737" transform="rotate(29.64 274.911 2288.23)" fill="#44AE65"/>
        <ellipse cx="308.967" cy="2338.61" rx="6.815" ry="6.737" transform="rotate(29.64 308.967 2338.61)" fill="#44AE65"/>
        <ellipse cx="285.275" cy="2325.13" rx="6.815" ry="6.737" transform="rotate(29.64 285.275 2325.13)" fill="#44AE65"/>
        <path d="M913.263 1347.74c217.427-12.78 234.827-85.19 232.067-140.58-2.75-55.4-74.02-96.18-128.71-69.27-54.699 26.92-116.707 133.19 43.69 271.63 160.4 138.44 67.47 190.51 21.97 180.07-45.51-10.45-117.024-122.93 91.99-218.96" stroke="#A8D1E7" stroke-width="4" stroke-dasharray="25 15"/>
        <path d="M26.37 2922.99c.91-4.34 5.82-16.93 12.395-21.28 6.576-4.34 16.538 2.15 24.429-3.07 7.891-5.21 4.505-16.05 12.396-21.27 7.135-4.72 24.429-3.07 24.429-3.07M13.017 2902.79c.91-4.34 5.82-16.93 12.395-21.27 6.576-4.35 16.538 2.14 24.43-3.08 7.89-5.21 4.504-16.05 12.395-21.27 7.136-4.72 24.43-3.07 24.43-3.07M151.175 78.74c1.085-4.298 6.496-16.678 13.241-20.757 6.746-4.079 16.439 2.81 24.533-2.085 8.094-4.895 5.147-15.863 13.241-20.758 7.319-4.426 24.533-2.085 24.533-2.085M138.646 58.022c1.085-4.3 6.496-16.678 13.241-20.758 6.745-4.079 16.438 2.81 24.533-2.085 8.094-4.895 5.147-15.863 13.241-20.758 7.319-4.426 24.533-2.085 24.533-2.085" stroke="#E87C96" stroke-width="4"/>
    </g>
    <defs>
        <filter id="prefix__a" x=".724" y=".639" width="1295.37" height="2932.79" filterUnits="userSpaceOnUse" color-interpolation-filters="sRGB">
            <feFlood flood-opacity="0" result="BackgroundImageFix"/>
            <feColorMatrix in="SourceAlpha" values="0 0 0 0 0 0 0 0 0 0 0 0 0 0 0 0 0 0 127 0" result="hardAlpha"/>
            <feOffset dy="4"/>
            <feGaussianBlur stdDeviation="2"/>
            <feComposite in2="hardAlpha" operator="out"/>
            <feColorMatrix values="0 0 0 0 0 0 0 0 0 0 0 0 0 0 0 0 0 0 0.25 0"/>
            <feBlend in2="BackgroundImageFix" result="effect1_dropShadow"/>
            <feBlend in="SourceGraphic" in2="effect1_dropShadow" result="shape"/>
        </filter>
    </defs>
</svg>
