<svg width="939" height="253" viewBox="0 0 939 253" fill="none" xmlns="http://www.w3.org/2000/svg">
<path d="M658.95 80.9991C661.253 80.9991 663.556 81.1571 665.807 81.5258C666.854 81.6838 667.849 81.8944 668.895 82.1051C669.838 82.3157 670.728 82.5791 671.67 82.8424C671.827 82.8424 671.984 82.8424 672.141 82.8424C680.359 82.8424 687.112 76.47 687.792 68.3597V15.8007C687.792 7.05845 694.807 0.00143433 703.496 0.00143433H923.297C931.987 0.00143433 939.001 7.05845 939.001 15.8007V67.3064C939.001 71.6249 935.546 75.1534 931.254 75.2061H931.201H931.149H931.097C930.102 75.1534 929.16 74.9954 928.27 74.5741C928.165 74.5741 928.061 74.5214 927.956 74.5214C924.972 73.9948 921.884 73.7314 918.743 73.7314C889.848 73.7314 866.397 97.3251 866.397 126.396C866.397 155.466 889.848 179.06 918.743 179.06C922.093 179.06 925.391 178.744 928.532 178.112C929.16 177.901 929.788 177.743 930.469 177.691C930.678 177.691 930.887 177.691 931.097 177.691C934.866 177.691 938.006 180.377 938.739 183.905C938.844 184.432 938.949 185.011 938.949 185.59V236.991C938.949 245.733 931.934 252.79 923.245 252.79H870.428H756.313H703.444C694.754 252.79 687.74 245.733 687.74 236.991V184.432C687.74 175.69 680.726 168.633 672.036 168.633C671.931 168.633 671.774 168.633 671.67 168.633C667.639 169.844 663.347 170.476 658.95 170.476C634.399 170.476 614.456 150.463 614.456 125.711C614.456 101.012 634.399 80.9991 658.95 80.9991ZM928.793 59.7754C927.799 60.0914 926.909 60.5654 926.124 61.25C926.909 60.5654 927.851 60.0914 928.793 59.7754Z" fill="#DAE8F0"/>
<path d="M280.052 171.791C277.749 171.791 275.446 171.633 273.195 171.264C272.148 171.106 271.153 170.895 270.106 170.685C269.164 170.474 268.274 170.211 267.332 169.948C267.175 169.948 267.018 169.948 266.861 169.948C258.643 169.948 251.89 176.32 251.21 184.43L251.21 236.989C251.21 245.731 244.195 252.788 235.506 252.788L15.7048 252.788C7.01535 252.788 0.000975948 245.731 0.000975186 236.989L0.000970698 185.484C0.000970321 181.165 3.45581 177.637 7.74818 177.584L7.80053 177.584L7.85287 177.584L7.90522 177.584C8.8998 177.637 9.84202 177.795 10.7319 178.216C10.8366 178.216 10.9413 178.269 11.046 178.269C14.0297 178.795 17.1181 179.058 20.2589 179.058C49.1539 179.058 72.6049 155.465 72.6049 126.394C72.6049 97.3235 49.1539 73.7299 20.2589 73.7299C16.9087 73.7299 13.6109 74.0459 10.4702 74.6778C9.84202 74.8885 9.21386 75.0465 8.53336 75.0992C8.32398 75.0992 8.1146 75.0992 7.90521 75.0992C4.1363 75.0992 0.995536 72.4133 0.262691 68.8848C0.157999 68.3581 0.0533065 67.7788 0.0533064 67.1995L0.0533019 15.7991C0.0533012 7.05688 7.06767 -0.000137949 15.7571 -0.000138711L68.5743 -0.000143344L182.689 -0.000153352L235.558 -0.00015799C244.248 -0.000158752 251.262 7.05686 251.262 15.7991L251.262 68.3581C251.262 77.1004 258.276 84.1574 266.966 84.1574C267.07 84.1574 267.227 84.1574 267.332 84.1574C271.363 82.9461 275.655 82.3141 280.052 82.3141C304.603 82.3141 324.546 102.327 324.546 127.079C324.546 151.778 304.603 171.791 280.052 171.791ZM10.2084 193.015C11.203 192.699 12.0929 192.225 12.8781 191.54C12.0929 192.225 11.1507 192.699 10.2084 193.015Z" fill="#DAE8F0"/>
<rect width="539.181" height="252.789" transform="matrix(-1 0 0 1 772.85 0.00140381)" fill="#DAE8F0"/>
</svg>
