<svg width="609" height="252" viewBox="0 0 609 252" fill="none" xmlns="http://www.w3.org/2000/svg">
<path d="M328.949 80.7449C331.252 80.7449 333.555 80.9024 335.806 81.2699C336.853 81.4274 337.848 81.6374 338.894 81.8474C339.837 82.0574 340.727 82.3199 341.669 82.5824C341.826 82.5824 341.983 82.5824 342.14 82.5824C350.358 82.5824 357.111 76.2299 357.791 68.1449V15.7499C357.791 7.03494 364.806 -6.10352e-05 373.495 -6.10352e-05H593.296C601.986 -6.10352e-05 609 7.03494 609 15.7499V67.0949C609 71.3999 605.545 74.9174 601.253 74.9699H601.2H601.148H601.096C600.101 74.9174 599.159 74.7599 598.269 74.3399C598.164 74.3399 598.06 74.2874 597.955 74.2874C594.971 73.7624 591.883 73.4999 588.742 73.4999C559.847 73.4999 536.396 97.0199 536.396 126C536.396 154.98 559.847 178.5 588.742 178.5C592.092 178.5 595.39 178.185 598.531 177.555C599.159 177.345 599.787 177.187 600.468 177.135C600.677 177.135 600.886 177.135 601.096 177.135C604.865 177.135 608.005 179.812 608.738 183.33C608.843 183.855 608.948 184.432 608.948 185.01V236.25C608.948 244.965 601.933 252 593.244 252H540.427H426.312H373.443C364.753 252 357.739 244.965 357.739 236.25V183.855C357.739 175.14 350.725 168.105 342.035 168.105C341.931 168.105 341.773 168.105 341.669 168.105C337.638 169.312 333.346 169.942 328.949 169.942C304.398 169.942 284.455 149.992 284.455 125.317C284.455 100.695 304.398 80.7449 328.949 80.7449ZM598.793 59.5874C597.798 59.9024 596.908 60.3749 596.123 61.0574C596.908 60.3749 597.85 59.9024 598.793 59.5874Z" fill="#DAE8F0"/>
<path d="M280.051 171.255C277.748 171.255 275.445 171.097 273.194 170.73C272.147 170.572 271.152 170.362 270.106 170.152C269.163 169.942 268.273 169.68 267.331 169.417C267.174 169.417 267.017 169.417 266.86 169.417C258.642 169.417 251.889 175.77 251.209 183.855L251.209 236.25C251.209 244.965 244.194 252 235.505 252L15.7038 252C7.01437 252 -6.1493e-07 244.965 -1.37671e-06 236.25L-5.86478e-06 184.905C-6.24108e-06 180.6 3.45483 177.082 7.74721 177.03L7.79955 177.03L7.8519 177.03L7.90425 177.03C8.89882 177.082 9.84105 177.24 10.7309 177.66C10.8356 177.66 10.9403 177.712 11.045 177.712C14.0287 178.237 17.1171 178.5 20.2579 178.5C49.1529 178.5 72.6039 154.98 72.6039 126C72.6039 97.0199 49.1529 73.4999 20.2579 73.4999C16.9078 73.4999 13.61 73.8149 10.4692 74.4449C9.84104 74.6549 9.21289 74.8124 8.53239 74.8649C8.323 74.8649 8.11362 74.8649 7.90424 74.8649C4.13532 74.8649 0.994559 72.1874 0.261714 68.6699C0.157022 68.1449 0.0523299 67.5674 0.0523299 66.9899L0.0523254 15.7499C0.0523246 7.03493 7.06669 -7.69118e-05 15.7561 -7.76716e-05L68.5733 -8.22897e-05L182.688 -9.22673e-05L235.557 -9.689e-05C244.247 -9.76498e-05 251.261 7.03491 251.261 15.7499L251.261 68.1449C251.261 76.8599 258.275 83.8949 266.965 83.8949C267.069 83.8949 267.227 83.8949 267.331 83.8949C271.362 82.6874 275.654 82.0574 280.051 82.0574C304.602 82.0574 324.545 102.007 324.545 126.682C324.545 151.305 304.602 171.255 280.051 171.255ZM10.2075 192.412C11.202 192.097 12.0919 191.625 12.8771 190.942C12.0919 191.625 11.1497 192.097 10.2075 192.412Z" fill="#DAE8F0"/>
<rect width="170" height="252" transform="matrix(-1 0 0 1 404 0)" fill="#DAE8F0"/>
</svg>
