<svg width="328" height="253" viewBox="0 0 328 253" fill="none" xmlns="http://www.w3.org/2000/svg">
<mask id="mask0" mask-type="alpha" maskUnits="userSpaceOnUse" x="0" y="0" width="327" height="253">
<path d="M191.908 0.205763L237.34 0.206892C246.09 0.207109 253.152 7.25873 253.153 15.9941L253.154 67.5118C253.154 72.1952 255.21 76.4051 258.478 79.2994C259.321 80.0361 260.217 80.7203 261.218 81.2465C263.537 82.5621 266.173 83.2989 268.966 83.299C269.493 83.299 270.073 83.2464 270.6 83.1938C271.76 82.8781 272.919 82.615 274.131 82.4045C276.767 81.931 279.455 81.6679 282.195 81.668C306.914 81.6686 326.996 101.718 326.997 126.398C326.997 151.131 306.917 171.127 282.198 171.127C279.193 171.127 276.242 170.811 273.396 170.284L273.343 170.284C272.658 170.074 272.025 169.916 271.287 169.811L273.238 170.232C272.552 170.127 271.92 169.969 271.287 169.811L271.235 169.811C270.444 169.706 269.654 169.653 268.863 169.653C266.07 169.653 263.434 170.389 261.168 171.652C260.272 172.179 259.376 172.757 258.585 173.441C255.581 176.02 253.526 179.651 253.104 183.808C253.052 184.334 252.999 184.913 252.999 185.439C252.999 185.966 253.052 186.544 253.104 187.071L253.106 237.01C253.106 245.745 246.043 252.796 237.294 252.796L15.9817 252.791C7.23251 252.79 0.169722 245.739 0.169493 237.003L0.163696 15.9878C0.163467 7.25245 7.22589 0.201177 15.9751 0.201395L73.8463 0.202832L191.908 0.205763Z" fill="#DAE8F0"/>
</mask>
<g mask="url(#mask0)">
<rect width="438.973" height="300.972" transform="matrix(-1 -2.1971e-05 2.33017e-05 1 328.233 -19.273)" fill="#DAE8F0"/>
</g>
</svg>
